<svg width='200' height='200' fill="#223974" xmlns="http://www.w3.org/2000/svg" xmlns:xlink="http://www.w3.org/1999/xlink" version="1.1" x="0px" y="0px" viewBox="0 0 98 98" style="enable-background:new 0 0 98 98;" xml:space="preserve"><g><path d="M49,6.6C25.6,6.6,6.6,25.6,6.6,49s19,42.4,42.4,42.4s42.4-19,42.4-42.4S72.4,6.6,49,6.6z M49,86.6   c-20.7,0-37.6-16.9-37.6-37.6S28.3,11.4,49,11.4S86.6,28.3,86.6,49S69.7,86.6,49,86.6z"/><polygon points="51,33 47,33 47,47 33,47 33,51 47,51 47,65 51,65 51,51 65,51 65,47 51,47  "/></g></svg>