<svg xmlns="http://www.w3.org/2000/svg" width="16" height="15" viewBox="0 0 16 15">
  <path fill="#223974" d="M8,0 C12.418278,0 16,3.35786439 16,7.5 C16,11.6421356 12.418278,15 8,15 C3.58172201,15 0,11.6421356 0,7.5 C0,3.35786439 3.58172201,0 8,0 Z M7.82367314,10.9620991 L4.72534795,8.03939436 C4.48225128,7.81126425 4.84676741,7.46919002 5.08986408,7.69732014 L7.55990281,10.0161853 C7.65992137,10.1100824 7.74220924,10.0799289 7.74220924,9.94743794 L7.74220924,4.11086383 C7.74220924,3.9806001 7.85762609,3.87096774 8,3.87096774 C8.1433665,3.87096774 8.25779076,3.97837287 8.25779076,4.11086383 L8.25779076,9.94743794 C8.25779076,10.0777017 8.33941213,10.1107081 8.44009719,10.0161853 L10.9101359,7.69732014 C11.1532326,7.46919002 11.5177487,7.81126425 11.2746521,8.03939436 L8.18512111,10.9620991 C8.08548583,11.0563543 7.92362609,11.0563865 7.82367314,10.9620991 Z M8,0.483870968 C3.86677221,0.483870968 0.516129032,3.62509894 0.516129032,7.5 C0.516129032,11.3749011 3.86677221,14.516129 8,14.516129 C12.1332278,14.516129 15.483871,11.3749011 15.483871,7.5 C15.483871,3.62509894 12.1332278,0.483870968 8,0.483870968 Z"/>
</svg>
